<svg xmlns="http://www.w3.org/2000/svg" viewBox="0 0 16.03 12.66"><defs><style>.a{fill:#ea4335;}.b{fill:#fff;}.c{fill:#fbbc04;}.d{fill:#34a853;}.e{fill:#4285f4;}</style></defs><path class="a" d="M1.88,8.91a1.88,1.88,0,1,0,0,3.75h9.38V8.91Z"/><path class="b" d="M2.88,10.78a1,1,0,1,1-1-1A1,1,0,0,1,2.88,10.78Z"/><path class="c" d="M4.77,3.76a1.87,1.87,0,1,0-2.2,3l7.58,5.51,2.21-3Z"/><path class="b" d="M4.67,5.28a1,1,0,1,1-1-1A1,1,0,0,1,4.67,5.28Z"/><path class="d" d="M10.14,1.29A1.88,1.88,0,0,0,6.57,2.45l2.9,8.91L13,10.2Z"/><path class="b" d="M9.36,1.87a1,1,0,1,1-1-1A1,1,0,0,1,9.36,1.87Z"/><path class="e" d="M14.73.09a1.88,1.88,0,0,0-2.36,1.2L9.47,10.2A1.88,1.88,0,0,0,13,11.36l2.9-8.91A1.87,1.87,0,0,0,14.73.09Z"/><path class="b" d="M15.16,1.87a1,1,0,1,1-1-1A1,1,0,0,1,15.16,1.87Zm-2.91,8.91a1,1,0,1,1-1-1A1,1,0,0,1,12.25,10.78Z"/></svg>