<svg xmlns="http://www.w3.org/2000/svg" xmlns:xlink="http://www.w3.org/1999/xlink" viewBox="0 0 26 36"><defs><style>.a{fill:#db4437;}.a,.b,.c,.e,.g{fill-rule:evenodd;}.b{fill:#3e2723;}.b,.c{fill-opacity:0.2;}.c{fill:#fff;}.d{fill:url(#a);}.e{fill:#eda29b;}.f{fill:#f1f1f1;}.g{fill-opacity:0.1;fill:url(#b);}</style><linearGradient id="a" x1="-28.26" y1="793.56" x2="-28.26" y2="792.65" gradientTransform="matrix(8.5, 0, 0, -8.5, 262, 6754)" gradientUnits="userSpaceOnUse"><stop offset="0" stop-color="#1a237e" stop-opacity="0.2"/><stop offset="1" stop-color="#1a237e" stop-opacity="0.02"/></linearGradient><radialGradient id="b" cx="-28.89" cy="793.86" r="1.61" gradientTransform="matrix(26, 0, 0, -26, 752, 20641.22)" gradientUnits="userSpaceOnUse"><stop offset="0" stop-color="#fff"/><stop offset="1" stop-color="#fff" stop-opacity="0"/></radialGradient></defs><path class="a" d="M2.5,0H17l9,9V33.5A2.5,2.5,0,0,1,23.5,36H2.5A2.5,2.5,0,0,1,0,33.5V2.5A2.5,2.5,0,0,1,2.5,0Z"/><path class="b" d="M0,33a2.5,2.5,0,0,0,2.5,2.5h21A2.5,2.5,0,0,0,26,33v.5A2.5,2.5,0,0,1,23.5,36H2.5A2.5,2.5,0,0,1,0,33.5Z"/><path class="c" d="M2.5,0H17V.5H2.5A2.5,2.5,0,0,0,0,3V2.5A2.5,2.5,0,0,1,2.5,0Z"/><path class="d" d="M17.5,8,26,16.5V9"/><path class="e" d="M17,0l9,9H19.5A2.5,2.5,0,0,1,17,6.5Z"/><path class="f" d="M15,20a5,5,0,1,0-5,5A5,5,0,0,0,15,20Zm-5,3a3,3,0,1,1,3-3A3,3,0,0,1,10,23Zm6.5-1A5.72,5.72,0,0,1,13,26v4h8V22Z"/><path class="g" d="M2.5,0H17l9,9V33.5A2.5,2.5,0,0,1,23.5,36H2.5A2.5,2.5,0,0,1,0,33.5V2.5A2.5,2.5,0,0,1,2.5,0Z"/></svg>