<svg xmlns="http://www.w3.org/2000/svg" viewBox="0 0 15.01 12.75"><path d="M11.25,10.5A1.5,1.5,0,1,0,9.75,9,1.51,1.51,0,0,0,11.25,10.5ZM14.14,9a2.23,2.23,0,0,1,0,.37l.81.61a.19.19,0,0,1,0,.24l-.77,1.3a.19.19,0,0,1-.24.08l-1-.37a2.79,2.79,0,0,1-.66.36l-.14,1a.17.17,0,0,1-.18.16H10.48a.2.2,0,0,1-.2-.16l-.14-1a2.76,2.76,0,0,1-.65-.36l-1,.37a.2.2,0,0,1-.24-.08l-.77-1.3a.19.19,0,0,1,0-.24l.82-.61a2.31,2.31,0,0,1,0-.37,1.55,1.55,0,0,1,0-.37L7.57,8a.18.18,0,0,1-.05-.24l.78-1.3a.19.19,0,0,1,.24-.08l1,.38a2.75,2.75,0,0,1,.65-.37l.14-1a.19.19,0,0,1,.19-.16H12a.2.2,0,0,1,.2.16l.14,1a2.33,2.33,0,0,1,.65.37l1-.38a.2.2,0,0,1,.24.08L15,7.77a.19.19,0,0,1,0,.24l-.82.62C14.13,8.75,14.14,8.87,14.14,9ZM6,1.5A1.5,1.5,0,1,1,4.5,3,1.51,1.51,0,0,1,6,1.5Zm.77,5.29L6,8.25c-2,0-4.35,1-4.5,1.51v.74H6L6.79,12H0V9.75c0-2,4-3,6-3C6.23,6.75,6.49,6.77,6.77,6.79ZM6,6A3,3,0,1,0,3,3,3,3,0,0,0,6,6Z"/></svg>