<?xml version="1.0" encoding="UTF-8" standalone="no"?>
<svg
   xmlns:dc="http://purl.org/dc/elements/1.1/"
   xmlns:cc="http://creativecommons.org/ns#"
   xmlns:rdf="http://www.w3.org/1999/02/22-rdf-syntax-ns#"
   xmlns:svg="http://www.w3.org/2000/svg"
   xmlns="http://www.w3.org/2000/svg"
   xmlns:sodipodi="http://sodipodi.sourceforge.net/DTD/sodipodi-0.dtd"
   xmlns:inkscape="http://www.inkscape.org/namespaces/inkscape"
   width="128pt"
   height="128pt"
   viewBox="0 0 128 128"
   version="1.1"
   id="svg2"
   inkscape:version="0.91 r13725"
   sodipodi:docname="script-128.svg">
  <title
     id="title4154">Google Apps Script logo</title>
  <metadata
     id="metadata23">
    <rdf:RDF>
      <cc:Work
         rdf:about="">
        <dc:format>image/svg+xml</dc:format>
        <dc:type
           rdf:resource="http://purl.org/dc/dcmitype/StillImage" />
        <dc:title>Google Apps Script logo</dc:title>
        <cc:license
           rdf:resource="" />
        <dc:source>http://blog.kupriyanov.com/</dc:source>
      </cc:Work>
    </rdf:RDF>
  </metadata>
  <defs
     id="defs21" />
  <sodipodi:namedview
     pagecolor="#ffffff"
     bordercolor="#666666"
     borderopacity="1"
     objecttolerance="10"
     gridtolerance="10"
     guidetolerance="10"
     inkscape:pageopacity="0"
     inkscape:pageshadow="2"
     inkscape:window-width="1317"
     inkscape:window-height="744"
     id="namedview19"
     showgrid="false"
     inkscape:zoom="2.95"
     inkscape:cx="79.597149"
     inkscape:cy="71.938899"
     inkscape:window-x="49"
     inkscape:window-y="24"
     inkscape:window-maximized="1"
     inkscape:current-layer="#3a80f7ff" />
  <g
     id="#3a80f7ff"
     style="fill:#3a80f7;fill-opacity:1">
    <path
       style="fill:#3a80f7;fill-opacity:1"
       d="M 102.52539 12.449219 C 99.675391 12.499219 96.8375 12.5125 94 12.5 C 74.3 12.5125 54.599609 12.4875 34.912109 12.5 C 29.737109 12.6375 25.1125 17.287891 25 22.462891 C 24.9875 39.975391 25 57.4875 25 75 L 70 75 C 70.0125 68.2875 69.975391 61.5875 70.025391 54.875 C 71.862891 56.7125 73.699609 58.538281 75.537109 60.363281 C 84.587109 69.400781 93.636719 78.424219 102.63672 87.511719 C 91.799219 98.411719 80.900391 109.25 70.025391 120.125 C 69.950391 113.425 70.012109 106.72422 69.974609 100.01172 C 54.987109 100.02422 39.9875 100.03711 25 100.03711 C 24.9875 112.09961 25.025781 124.16328 24.988281 136.23828 C 24.463281 142.27578 30.187109 148.01172 36.224609 147.51172 C 65.412109 147.47422 94.600391 147.46328 123.77539 147.48828 C 129.77539 148.00078 135.46328 142.33789 134.98828 136.33789 C 134.95078 116.75039 135.01328 97.150781 134.98828 77.550781 L 134.85938 45.158203 L 102.52539 12.449219 z "
       transform="scale(0.8,0.8)"
       id="path5" />
  </g>
  <g
     id="#a0c3ffff">
    <path
       fill="#a0c3ff"
       opacity="1.00"
       d=" M 82.02 9.96 C 90.76 18.56 99.41 27.25 108.04 35.96 C 99.36 36.02 90.68 36.02 82.00 36.03 C 81.91 27.34 81.86 18.65 82.02 9.96 Z"
       id="path11" />
  </g>
  <g
     id="#2256afff">
    <path
       fill="#2256af"
       opacity="1.00"
       d=" M 82.00 36.03 C 90.68 36.02 99.36 36.02 108.04 35.96 C 107.93 44.65 108.04 53.35 107.99 62.04 C 99.22 53.48 90.64 44.72 82.00 36.03 Z"
       id="path14" />
  </g>
  <g
     id="#ebf2feff">
    <path
       fill="#ebf2fe"
       opacity="1.00"
       d=" M 56.02 43.90 C 57.49 45.37 58.96 46.83 60.43 48.29 C 67.67 55.52 74.91 62.74 82.11 70.01 C 73.44 78.73 64.72 87.40 56.02 96.10 C 55.96 90.74 56.01 85.38 55.98 80.01 C 43.99 80.02 31.99 80.03 20.00 80.03 C 20.00 73.35 20.00 66.68 20.00 60.00 C 32.00 60.00 44.00 60.00 56.00 60.00 C 56.01 54.63 55.98 49.27 56.02 43.90 Z"
       id="path17" />
  </g>
</svg>
