<svg version="1.1" id="Layer_1" xmlns="http://www.w3.org/2000/svg" xmlns:xlink="http://www.w3.org/1999/xlink" x="0" y="0" viewBox="0 0 796.6 781.7" xml:space="preserve"><style>.st0{fill:#c2c2c2}.st5{fill:#fff;fill-opacity:.2}.st9{fill:#eee}.st10{fill:#fff;fill-opacity:.4}.st11{fill:#212121;fill-opacity:.1}</style><path class="st0" d="M657 54C-23 82 95-88 87 447h624V108c0-30-24-54-54-54z"/><path d="M693 161H104c-30 0-54 24-54 54l1 7 35 225h625l35-225c5-32-21-61-53-61z" fill="#3367d6"/><path d="M693 161H104c-30 0-54 24-54 54l1 7 35 225h625l35-225c5-32-21-61-53-61z" opacity=".5" fill="#2a56c6"/><path d="M729 675l-18-228H86c0 5-19 227-18 232 0 30 24 54 53 54h554c30 0 54-24 54-54v-4z" fill="#4285f4"/><linearGradient id="SVGID_1_" gradientUnits="userSpaceOnUse" x1="2538.6" y1="-19694.8" x2="3416.9" y2="-20573.2" gradientTransform="matrix(.33 0 0 -.33 -619 -6240)"><stop offset="0" stop-color="#1a237e" stop-opacity=".2"/><stop offset="1" stop-color="#1a237e" stop-opacity="0"/></linearGradient><path fill="url(#SVGID_1_)" d="M86 447l286 286h357V447z"/><path class="st5" d="M104 166h589c29 0 53 22 54 51 1-29-22-54-51-56H104a54 54 0 00-54 56c1-28 25-51 54-51z"/><path d="M675 728H121c-29 0-52-23-53-52-2 30 21 55 51 57h556c30 0 54-24 54-54v-3c-1 29-25 52-54 52z" fill="#1a237e" fill-opacity=".2"/><path class="st5" d="M657 54H139c-31 0-55 27-53 58 0-30 24-53 53-54h518c30 0 54 24 54 54 2-31-22-58-54-58z"/><path d="M346 443c20-8 46-31 46-64 7-111-179-110-180-3h36c1-28 20-51 55-51 77-3 68 112-7 105h-26v28h26c91-5 80 116 7 111-29 0-56-15-57-51h-36c4 113 191 105 187-6 0-45-33-63-51-69zm207-148l-106 38v34l76-25v257h36V295h-6z" fill="#e1e1e1"/><path class="st0" d="M346 443c20-8 46-31 46-64 7-111-179-110-180-3h36c1-28 20-51 55-51 77-3 68 112-7 105h-26v28h26c91-5 80 116 7 111-29 0-56-15-57-51h-36c4 113 191 105 187-6 0-45-33-63-51-69zm207-148l-106 38v34l76-25v257h36V295h-6z"/><linearGradient id="SVGID_2_" gradientUnits="userSpaceOnUse" x1="2481.9" y1="-19151.1" x2="2586.1" y2="-19255.3" gradientTransform="matrix(.33 0 0 -.33 -619 -6240)"><stop offset="0" stop-color="#212121" stop-opacity=".2"/><stop offset="1" stop-color="#212121" stop-opacity="0"/></linearGradient><path fill="url(#SVGID_2_)" d="M244 161l-34-34 38-38 72 72z"/><path class="st9" d="M229 81c35 0 35 53 0 53-36 0-36-53 0-53z"/><path class="st10" d="M229 85c13 0 25 11 26 25 2-38-55-38-53 0 1-14 13-25 27-25z"/><path class="st11" d="M255 110c-2 32-51 32-53 0-2 38 56 38 53 0z"/><defs><path id="SVGID_3_" d="M729 675l-18-228H86c0 5-19 227-18 232 0 30 24 54 53 54h554c30 0 54-24 54-54v-4z"/></defs><clipPath id="SVGID_4_"><use xlink:href="#SVGID_3_" overflow="visible"/></clipPath><g clip-path="url(#SVGID_4_)"><path class="st9" d="M346 443c20-8 46-31 46-64 7-111-179-110-180-3h36c1-28 20-51 55-51 77-3 68 112-7 105h-26v28h26c91-5 80 116 7 111-29 0-56-15-57-51h-36c4 113 191 105 187-6 0-45-33-63-51-69zm207-148l-106 38v34l76-25v257h36V295h-6z"/></g><linearGradient id="SVGID_5_" gradientUnits="userSpaceOnUse" x1="3505.1" y1="-19146.1" x2="3596.5" y2="-19237.4" gradientTransform="matrix(.33 0 0 -.33 -619 -6240)"><stop offset="0" stop-color="#212121" stop-opacity=".2"/><stop offset="1" stop-color="#212121" stop-opacity="0"/></linearGradient><path fill="url(#SVGID_5_)" d="M584 161l-35-34 38-38 55 72z"/><path class="st9" d="M568 81c35 0 35 53 0 53s-35-53 0-53z"/><path class="st10" d="M568 85c14 0 25 11 27 25 2-38-56-38-54 0 1-14 13-25 27-25z"/><path class="st11" d="M595 110c-3 32-51 32-54 0-2 38 56 38 54 0z"/></svg>