<?xml version="1.0" encoding="utf-8"?>
<!-- Generator: Adobe Illustrator 25.2.0, SVG Export Plug-In . SVG Version: 6.00 Build 0)  -->
<svg version="1.1" id="Layer_1" xmlns="http://www.w3.org/2000/svg" xmlns:xlink="http://www.w3.org/1999/xlink" x="0px" y="0px"
	 viewBox="0 0 796.6 781.7" style="enable-background:new 0 0 796.6 781.7;" xml:space="preserve">
<style type="text/css">
	.st0{fill:#C2C2C2;}
	.st1{fill:#3367D6;}
	.st2{opacity:0.5;fill:#2A56C6;enable-background:new    ;}
	.st3{fill:#4285F4;}
	.st4{fill:url(#SVGID_1_);}
	.st5{fill:#FFFFFF;fill-opacity:0.2;}
	.st6{fill:#1A237E;fill-opacity:0.2;}
	.st7{fill:#E1E1E1;}
	.st8{fill:url(#SVGID_2_);}
	.st9{fill:#EEEEEE;}
	.st10{fill:#FFFFFF;fill-opacity:0.4;}
	.st11{fill:#212121;fill-opacity:0.1;}
	.st12{clip-path:url(#SVGID_4_);}
	.st13{fill:url(#SVGID_5_);}
</style>
<path class="st0" d="M657.2,54C-22.9,81.6,94.6-88.5,86.8,446.9h624.1V107.6C710.8,78,686.9,54,657.2,54C657.3,54,657.2,54,657.2,54
	z"/>
<path class="st1" d="M693,161.1H103.6c-29.6,0-53.6,24-53.6,53.5c0,0,0,0,0,0c0,2.4,0.2,4.9,0.5,7.3l35.2,224.8h625.1L746,222
	C750.6,190.2,725.2,160.9,693,161.1z"/>
<path class="st2" d="M693,161.1H103.6c-29.6,0-53.6,24-53.6,53.5c0,0,0,0,0,0c0,2.4,0.2,4.9,0.5,7.3l35.2,224.8h625.1L746,222
	C750.6,190.2,725.2,160.9,693,161.1z"/>
<path class="st3" d="M728.5,675.4l-17.7-228.5H85.7c0.6,5.2-18.5,227.1-17.9,232.2c0,29.6,24,53.6,53.5,53.6c0,0,0,0,0,0h553.7
	c29.6,0,53.6-24.1,53.6-53.7C728.7,677.8,728.6,676.6,728.5,675.4z"/>
<linearGradient id="SVGID_1_" gradientUnits="userSpaceOnUse" x1="2538.605" y1="-19694.8359" x2="3416.9451" y2="-20573.166" gradientTransform="matrix(0.33 0 0 -0.33 -618.62 -6240.4692)">
	<stop  offset="0" style="stop-color:#1A237E;stop-opacity:0.2"/>
	<stop  offset="1" style="stop-color:#1A237E;stop-opacity:2.000000e-02"/>
</linearGradient>
<polygon class="st4" points="85.7,446.9 371.5,732.7 728.7,732.7 728.7,446.9 "/>
<path class="st5" d="M103.6,165.6H693c28.9,0,52.5,22.9,53.5,51.8c1.5-29.5-21.3-54.7-50.8-56.2c-0.9,0-1.8-0.1-2.7-0.1H103.6
	c-29.6,0-53.6,24-53.6,53.6c0,0.9,0,1.8,0.1,2.7C51,188.5,74.7,165.6,103.6,165.6z"/>
<path class="st6" d="M675.1,728.2H121.4c-28.9,0-52.5-22.9-53.4-51.8c-1.5,29.5,21.3,54.7,50.8,56.2c0.9,0,1.8,0.1,2.7,0.1h553.6
	c29.6,0,53.6-24,53.6-53.6c0-0.9,0-1.8-0.1-2.7C727.6,705.3,704,728.2,675.1,728.2z"/>
<path class="st5" d="M657.2,54H139.3c-31.3-0.1-55.7,26.8-53.6,57.8c0.1-29.5,24.1-53.3,53.6-53.4h517.9c29.6,0,53.6,24,53.6,53.5
	c0,0,0,0,0,0C713,80.9,688.6,53.8,657.2,54z"/>
<path class="st7" d="M345.9,443.1c20.3-8.4,46.5-30.7,46.5-64.3c7-110.6-179.6-109.9-180.2-3.3h36.3c0.5-27.9,19.4-50.8,54.6-50.8
	c76.4-2.4,67.6,111.9-7.5,105.2h-25.3v28.4h25.3c91-5.3,80.7,116.2,7.6,111.1c-29.5,0-56.4-15.8-57.2-51h-36.5
	c4.6,112.7,191.4,104.3,187.3-6.1C396.8,466.7,364.3,448.5,345.9,443.1z M553.1,295.1l-105.7,38v34.1l75.9-25.4v256.9H559V295.1
	L553.1,295.1z"/>
<path class="st0" d="M345.9,443.1c20.3-8.4,46.5-30.7,46.5-64.3c7-110.6-179.6-109.9-180.2-3.3h36.3c0.5-27.9,19.4-50.8,54.6-50.8
	c76.4-2.4,67.6,111.9-7.5,105.2h-25.3v28.4h25.3c91-5.3,80.7,116.2,7.6,111.1c-29.5,0-56.4-15.8-57.2-51h-36.5
	c4.6,112.7,191.4,104.3,187.3-6.1C396.8,466.7,364.3,448.5,345.9,443.1z M553.1,295.1l-105.7,38v34.1l75.9-25.4v256.9H559V295.1
	L553.1,295.1z"/>
<linearGradient id="SVGID_2_" gradientUnits="userSpaceOnUse" x1="2481.8958" y1="-19151.0547" x2="2586.1057" y2="-19255.2637" gradientTransform="matrix(0.33 0 0 -0.33 -618.62 -6240.4692)">
	<stop  offset="0" style="stop-color:#212121;stop-opacity:0.2"/>
	<stop  offset="1" style="stop-color:#212121;stop-opacity:2.000000e-02"/>
</linearGradient>
<polygon class="st8" points="244.3,161.1 209.7,126.5 247.5,88.6 320.1,161.1 "/>
<path class="st9" d="M228.6,80.8c35.2,0.6,35.2,53,0,53.6C193.4,133.8,193.4,81.4,228.6,80.8z"/>
<path class="st10" d="M228.6,85.3c13.9,0,25.5,10.7,26.6,24.6c2.3-38.1-55.6-38.1-53.3,0C203.1,95.9,214.7,85.3,228.6,85.3z"/>
<path class="st11" d="M255.3,109.8c-2.4,32.2-50.9,32.1-53.3,0C199.7,147.9,257.5,147.9,255.3,109.8z"/>
<g>
	<defs>
		<path id="SVGID_3_" d="M728.5,675.4l-17.7-228.5H85.7c0.6,5.2-18.5,227.1-17.9,232.2c0,29.6,24,53.6,53.5,53.6c0,0,0,0,0,0h553.7
			c29.6,0,53.6-24.1,53.6-53.7C728.7,677.8,728.6,676.6,728.5,675.4z"/>
	</defs>
	<clipPath id="SVGID_4_">
		<use xlink:href="#SVGID_3_"  style="overflow:visible;"/>
	</clipPath>
	<g class="st12">
		<path class="st9" d="M345.9,443.1c20.3-8.4,46.5-30.7,46.5-64.3c7-110.6-179.6-109.9-180.2-3.3h36.3c0.5-27.9,19.4-50.8,54.6-50.8
			c76.4-2.4,67.6,111.9-7.5,105.2h-25.3v28.4h25.3c91-5.3,80.7,116.2,7.6,111.1c-29.5,0-56.4-15.8-57.2-51h-36.5
			c4.6,112.7,191.4,104.3,187.3-6.1C396.8,466.7,364.3,448.5,345.9,443.1z M553.1,295.1l-105.7,38v34.1l75.9-25.4v256.9H559V295.1
			L553.1,295.1z"/>
	</g>
</g>
<linearGradient id="SVGID_5_" gradientUnits="userSpaceOnUse" x1="3505.1294" y1="-19146.0605" x2="3596.5093" y2="-19237.4395" gradientTransform="matrix(0.33 0 0 -0.33 -618.62 -6240.4692)">
	<stop  offset="0" style="stop-color:#212121;stop-opacity:0.2"/>
	<stop  offset="1" style="stop-color:#212121;stop-opacity:2.000000e-02"/>
</linearGradient>
<polygon class="st13" points="583.6,161.1 549,126.5 586.9,88.6 641.6,161.1 "/>
<path class="st9" d="M567.9,80.8c35.2,0.6,35.2,53,0,53.6C532.7,133.8,532.7,81.4,567.9,80.8z"/>
<path class="st10" d="M567.9,85.3c13.9,0,25.5,10.7,26.7,24.6c2.3-38.1-55.6-38.1-53.3,0C542.4,95.9,554,85.3,567.9,85.3z"/>
<path class="st11" d="M594.6,109.8c-2.4,32.2-50.9,32.1-53.3,0C539,147.9,596.8,147.9,594.6,109.8z"/>
</svg>
