<svg xmlns="http://www.w3.org/2000/svg" viewBox="0 36 528 456"><linearGradient id="a" x1="50%" x2="50%" y1="1.4%" y2="101%"><stop offset="0" stop-color="#bf360c" stop-opacity=".2"/><stop offset="1" stop-color="#bf360c" stop-opacity="0"/></linearGradient><radialGradient id="b" cx="3.4%" cy="2.3%" r="477.7%" gradientTransform="matrix(.86364 0 0 1 0 0)"><stop offset="0" stop-color="#fff" stop-opacity=".1"/><stop offset="1" stop-color="#fff" stop-opacity="0"/></radialGradient><g fill="none"><path fill="#0f9d58" d="M48 84h432v360H48z"/><path fill="#57bb8a" d="M360 276a27 27 0 100-54 27 27 0 000 54zm0 18c-29 0-60 15-60 34v20h120v-20c0-19-31-34-60-34zm-192-18a27 27 0 100-54 27 27 0 000 54zm0 18c-29 0-60 15-60 34v20h120v-20c0-19-31-34-60-34z"/><path fill="#f7f7f7" d="M264 252a36 36 0 100-72 36 36 0 000 72zm0 24c-40 0-84 22-84 48v24h168v-24c0-26-43-48-84-48z"/><path fill="#f1f1f1" d="M312 420h108v24H312z"/><path fill="#f4b400" d="M492 36H36C16 36 0 52 0 72v384c0 20 16 36 36 36h456c20 0 36-16 36-36V72c0-20-16-36-36-36zm-12 408H48V84h432z"/><path fill="#fff" d="M492 36H36C16 36 0 52 0 72v3c0-20 16-36 36-36h456c20 0 36 16 36 36v-3c0-20-16-36-36-36z" opacity=".2"/><path fill="#bf360c" d="M492 489H36c-20 0-36-16-36-36v3c0 20 16 36 36 36h456c20 0 36-16 36-36v-3c0 20-16 36-36 36z" opacity=".2"/><path fill="url(#a)" d="M420 444H312l48 48h108z"/><path fill="#263238" d="M48 81h432v3H48z" opacity=".2"/><path fill="#fff" d="M48 444h432v3H48z" opacity=".2"/><path fill="url(#b)" d="M492 36H36C16 36 0 52 0 72v384c0 20 16 36 36 36h456c20 0 36-16 36-36V72c0-20-16-36-36-36z"/></g></svg>