<svg xmlns="http://www.w3.org/2000/svg" viewBox="0 0 2738 3169"><defs/><path fill="#0F9D58" d="M2738 1368a1369 1369 0 00-2738 0c0 716 653 1297 1368 1297v504c832-422 1370-1100 1370-1801z"/><linearGradient id="a" x1="1385.3" x2="2323.1" y1="1856.7" y2="918.9" gradientTransform="matrix(1 0 0 -1 0 3170)" gradientUnits="userSpaceOnUse"><stop offset="0" stop-color="#263238"/><stop offset="1" stop-opacity="0"/></linearGradient><path fill="url(#a)" d="M2053 1008l-397 396-396-396-576 577 1235 1234c416-328 697-732 787-1157l-653-654z" opacity=".2"/><path fill="#EEE" d="M1477 1008v577h324v324c141 0 252-181 252-361v-540h-576zM684 1008v577h324v324c142 0 252-181 252-361v-540H684z"/><path fill="#FFF" d="M684 1008h576v18H684v-18zm793 0h576v18h-577v-18z" opacity=".4"/><path fill="#263238" d="M1801 1909v18c141 0 252-181 252-361v-17c0 180-111 360-252 360zm0-324h-325v18h325v-18zm-793 324l17 17c133-14 235-187 235-360v-18c0 181-110 361-252 361zm0-324H684v18h324v-18z" opacity=".2"/><path fill="#FFF" d="M1368 18c756 0 1369 613 1369 1368h1v-18h-1a1368 1368 0 00-2737 0v9C5 626 616 18 1368 18z" opacity=".2"/><path fill="#263238" d="M1368 2665v-18C655 2647 5 2071 0 1359v9c0 716 653 1297 1368 1297zm1369-1297c-9 694-544 1365-1369 1783v18c832-422 1369-1100 1369-1801z" opacity=".2"/></svg>