<svg xmlns="http://www.w3.org/2000/svg" viewBox="0 0 2499.46 2495.71"><path d="M1250.49.52,1874,625l-520.88,521.38L1250.49,890.33Z" transform="translate(-0.55 0.04)" fill="#dd4b39" stroke="#dd4b39" stroke-miterlimit="19.55" stroke-width="0.46"/><path d="M624.54,623.05h626V890.33l-101.64,253.61Z" transform="translate(-0.55 0.04)" fill="#ef851c" stroke="#ef851c" stroke-miterlimit="19.55" stroke-width="0.46"/><path d="M1874,625l2,623.51H1606.71L1353.1,1146.38Z" transform="translate(-0.55 0.04)" fill="#7e3794" stroke="#7e3794" stroke-miterlimit="19.55" stroke-width="0.46"/><path d="M626.5,625l522.35,518.94L893.29,1249,.55,1248" transform="translate(-0.55 0.04)" fill="#ffbb1b" stroke="#ffbb1b" stroke-miterlimit="19.55" stroke-width="0.46"/><path d="M625,1248.51l268.26.48,253.6,101.64-522.35,520.9Z" transform="translate(-0.55 0.04)" fill="#1a8763" stroke="#1a8763" stroke-miterlimit="19.55" stroke-width="0.46"/><path d="M1606.71,1248.51l892.75.48L1875,1874l-523.83-520.89Z" transform="translate(-0.55 0.04)" fill="#427fed" stroke="#427fed" stroke-miterlimit="19.55" stroke-width="0.46"/><path d="M1249,2495.51l-624.49-624,522.36-520.89,103.59,256" transform="translate(-0.55 0.04)" fill="#65b045" stroke="#65b045" stroke-miterlimit="19.55" stroke-width="0.46"/><path d="M1351.15,1353.07,1875,1874H1250l.49-267.29Z" transform="translate(-0.55 0.04)" fill="#43459d" stroke="#43459d" stroke-miterlimit="19.55" stroke-width="0.46"/></svg>