<?xml version="1.0" encoding="utf-8"?>
<!-- Generator: Adobe Illustrator 25.2.0, SVG Export Plug-In . SVG Version: 6.00 Build 0)  -->
<svg version="1.1" id="Layer_1" xmlns="http://www.w3.org/2000/svg" xmlns:xlink="http://www.w3.org/1999/xlink" x="0px" y="0px"
	 viewBox="0 0 96 96" style="enable-background:new 0 0 96 96;" xml:space="preserve">
<style type="text/css">
	.st0{fill:#FFFFFF;}
	.st1{fill:#EA4335;}
	.st2{fill:#FBBC04;}
	.st3{fill:#34A853;}
	.st4{fill:#188038;}
	.st5{fill:#1967D2;}
	.st6{fill:#4285F4;}
</style>
<path class="st0" d="M68,28H28v40h40V28z"/>
<path class="st1" d="M68,86l18-18H68V86z"/>
<path class="st2" d="M86,28H68v40h18V28z"/>
<path class="st3" d="M68,68H28v18h40V68z"/>
<path class="st4" d="M10,68v12c0,3.3,2.7,6,6,6h12V68H10z"/>
<path class="st5" d="M86,28V16c0-3.3-2.7-6-6-6H68v18H86z"/>
<path class="st6" d="M68,10H16c-3.3,0-6,2.7-6,6v52h18V28h40V10z"/>
<path class="st6" d="M36.2,59c-1.5-1-2.5-2.5-3.1-4.4l3.5-1.4c0.3,1.2,0.9,2.1,1.6,2.8c0.8,0.7,1.7,1,2.8,1c1.1,0,2.1-0.3,2.9-1
	s1.2-1.6,1.2-2.6c0-1.1-0.4-2-1.3-2.7c-0.9-0.7-1.9-1-3.2-1h-2v-3.4h1.8c1.1,0,2-0.3,2.8-0.9s1.1-1.4,1.1-2.5c0-0.9-0.3-1.7-1-2.2
	c-0.7-0.6-1.5-0.8-2.6-0.8c-1,0-1.8,0.3-2.4,0.8c-0.6,0.5-1.1,1.2-1.3,2l-3.4-1.4c0.5-1.3,1.3-2.4,2.5-3.4s2.8-1.5,4.7-1.5
	c1.4,0,2.7,0.3,3.8,0.8c1.1,0.5,2,1.3,2.6,2.3c0.6,1,0.9,2,0.9,3.2c0,1.2-0.3,2.3-0.9,3.1s-1.3,1.5-2.2,2v0.2
	c1.1,0.5,2.1,1.2,2.8,2.2c0.7,1,1.1,2.1,1.1,3.5s-0.3,2.6-1,3.6s-1.6,1.9-2.9,2.5c-1.2,0.6-2.6,0.9-4.1,0.9
	C39.3,60.5,37.7,60,36.2,59L36.2,59z M57.5,41.8l-3.8,2.8l-1.9-2.9l6.8-4.9h2.6V60h-3.7V41.8z"/>
</svg>
