<svg xmlns="http://www.w3.org/2000/svg" viewBox="0 -1 12 18"><defs><style>.a{fill:#56368a;}.b{fill:#7248b9;}.c{fill:#fff;}</style></defs><path class="a" d="M7.5,4.5l2.64-.09L12,4,8,0,7.31,1.9Z"/><path class="b" d="M8,4V0H1.13A1.11,1.11,0,0,0,0,1.09V14.91A1.11,1.11,0,0,0,1.13,16h9.75A1.11,1.11,0,0,0,12,14.91V4Z"/><path class="c" d="M3.19,11.55A.55.55,0,1,1,3.75,11,.56.56,0,0,1,3.19,11.55Zm0-2.19a.55.55,0,0,1-.56-.54.56.56,0,0,1,1.12,0A.55.55,0,0,1,3.19,9.36Zm0-2.18a.55.55,0,0,1-.56-.54.56.56,0,0,1,1.12,0A.55.55,0,0,1,3.19,7.18Zm6.19,4.27H4.69v-.9H9.38Zm0-2.18H4.69V8.36H9.38Zm0-2.18H4.69V6.18H9.38Z"/></svg>